<?xml version="1.0" encoding="UTF-8"?>
<svg width="45px" height="42px" viewBox="0 0 45 42" version="1.1" xmlns="http://www.w3.org/2000/svg" xmlns:xlink="http://www.w3.org/1999/xlink">
    <title>活动</title>
    <g id="页面-1" stroke="none" stroke-width="1" fill="none" fill-rule="evenodd">
        <g id="商城" transform="translate(-220.000000, -153.000000)" fill="#F88142">
            <g id="编组备份-3" transform="translate(220.000000, 152.000000)">
                <g id="编组" transform="translate(0.000000, 1.000000)">
                    <path d="M44.5,0 L0,41.75 L0,14.3671875 L15.4091797,0 L44.5,0 Z M9.12615499,20.9144017 L8.36247966,21.253813 C9.03281689,22.6369138 9.60133074,24.0709264 10.0934771,25.5473654 L10.967461,25.1994688 C10.4583442,23.8078827 9.83891862,22.3738701 9.12615499,20.9144017 Z M9.53344849,11.3769455 C8.72734676,13.0146048 7.39515758,14.771058 5.54536625,16.6208493 L6.28358572,16.9857164 C7.01331992,16.2559822 7.66668659,15.5347333 8.252171,14.830455 L9.58436018,16.1626442 L7.15756971,18.5894346 L7.74305412,19.174919 L10.1698446,16.7481286 L11.4850632,18.0633472 L9.62678659,19.9216238 L13.046355,23.3411922 L13.64881,22.7387372 L13.1821195,22.2720467 L16.3641,19.0900662 L16.8138199,19.5397861 L17.4162749,18.9373312 L14.0136771,15.5347333 L12.1044887,17.4439216 L10.7892701,16.128703 L13.2330312,13.684942 L12.6475468,13.0994576 L10.2037857,15.5432186 L8.79522901,14.1346619 C9.45708096,13.2521926 9.97468312,12.4121498 10.3565208,11.6060481 L9.53344849,11.3769455 Z M13.9882212,16.7141874 L15.7871009,18.5130671 L12.6051203,21.6950476 L10.8062407,19.896168 L13.9882212,16.7141874 Z M5.10413161,19.9979913 L5.09564633,20.8380342 C6.1563065,20.6598433 7.06423161,20.6004463 7.81942165,20.6428727 L7.81942165,19.7943446 C7.00483464,19.7604035 6.09690953,19.836771 5.10413161,19.9979913 Z M5.83386581,17.4524069 C5.07019049,17.4693775 4.21317707,17.5796861 3.27131084,17.7748476 L3.25434027,18.5894346 C4.27257404,18.3857879 5.12958746,18.2754792 5.83386581,18.2839645 L5.83386581,17.4524069 Z M17.6029511,8.97561083 L13.8779126,12.7006494 L14.4718823,13.294619 L15.6513364,12.1151649 C16.7713935,14.0837502 17.3738485,15.3650277 17.4671866,15.9674827 C17.450216,16.0183944 17.4247602,16.0777913 17.3823338,16.1541589 L18.1035827,16.5869082 C18.9690814,15.3480571 19.6988156,14.1092061 20.2758147,12.8873255 C20.555829,12.9976342 20.8443286,13.1164281 21.1497987,13.2521926 L21.4043571,12.4545762 C20.1909619,11.9539446 19.0199931,11.5466511 17.8829654,11.2242104 L17.6199216,11.996371 C18.2308619,12.1660766 18.8587727,12.3697234 19.5375952,12.6073113 C19.1218164,13.5152364 18.6466407,14.3807351 18.112068,15.1868368 C17.8065978,14.3722498 17.1871723,13.1588545 16.2368208,11.5296805 L18.1969208,9.56958053 L17.6029511,8.97561083 Z M20.1909619,4.09657404 L18.3411706,5.94636538 L16.6271437,4.23233854 L16.0162035,4.8432788 L17.7302303,6.55730564 L16.5847173,7.70281862 L17.178687,8.29678832 L18.3242,7.15127533 L18.4260234,7.25309871 C20.6915935,9.55260996 21.8031654,11.7502978 21.7692242,13.8376771 L22.6262377,13.7782801 C22.6516935,11.4957394 21.4552688,9.11137533 19.0369636,6.64215845 L18.9351403,6.54033507 L20.1909619,5.28451343 C22.456532,7.58402468 23.7887212,8.98409611 24.1875294,9.48472771 C24.6033082,10.036271 24.6033082,10.5284173 24.1875294,10.9441961 C23.9584268,11.1732987 23.6699273,11.4278571 23.3474866,11.7163567 L24.0263091,12.1236502 C24.3996615,11.784239 24.6542199,11.5466511 24.7984697,11.4024013 C25.5282039,10.6726671 25.5960861,9.90899178 24.9936312,9.13683118 C24.4420879,8.43255282 22.846855,6.75246711 20.1909619,4.09657404 Z M14.9894844,7.00702555 L11.9178126,10.0786974 L12.503297,10.6641818 L15.5749688,7.59250997 L14.9894844,7.00702555 Z" id="形状结合"></path>
                </g>
            </g>
        </g>
    </g>
</svg>