<?xml version="1.0" encoding="UTF-8"?>
<svg width="40px" height="40px" viewBox="0 0 40 40" version="1.1" xmlns="http://www.w3.org/2000/svg" xmlns:xlink="http://www.w3.org/1999/xlink">
    <title>科目余额表</title>
    <g id="页面-1" stroke="none" stroke-width="1" fill="none" fill-rule="evenodd">
        <g id="主页" transform="translate(-30.000000, -1086.000000)">
            <g id="分组-13" transform="translate(30.000000, 1086.000000)">
                <rect id="矩形" fill="#D8D8D8" opacity="0" x="0" y="0" width="40" height="40"></rect>
                <path d="M8.93618777,37.775423 C6.21155298,37.7716693 4.00372983,35.5497637 4,32.8077499 L4,6.96767302 C4.00372983,4.22565927 6.21155298,2.00375362 8.93618777,2 L29.4765521,2 C32.2011869,2.00375362 34.40901,4.22565927 34.4127398,6.96767302 L34.4127398,32.8043428 C34.40901,35.5463565 32.2011869,37.7682622 29.4765521,37.7720158 L8.93618777,37.775423 Z M8.93618777,4.18741158 C7.40932734,4.18928891 6.17202755,5.43448076 6.17016211,6.9710802 L6.17016211,32.8077499 C6.17202755,34.3443494 7.40932734,35.5895412 8.93618777,35.5914186 L29.4765521,35.5914186 C31.0034125,35.5895412 32.2407123,34.3443494 32.2425777,32.8077499 L32.2425777,6.96767302 C32.2407123,5.43107358 31.0034125,4.18588173 29.4765521,4.18400439 L8.93618777,4.18741158 Z" id="形状" fill="#333333" fill-rule="nonzero"></path>
                <path d="M11.2221445,21.3697371 C10.8200192,21.3923512 10.438441,21.1893038 10.2306098,20.8421165 C10.0227787,20.4949293 10.0227787,20.0605406 10.2306098,19.7133533 C10.438441,19.3661661 10.8200192,19.1631187 11.2221445,19.1857327 L27.4729684,19.1857327 C27.8750937,19.1631187 28.2566719,19.3661661 28.464503,19.7133533 C28.6723342,20.0605406 28.6723342,20.4949293 28.464503,20.8421165 C28.2566719,21.1893038 27.8750937,21.3923512 27.4729684,21.3697371 L11.2221445,21.3697371 Z M11.2221445,26.5350268 C10.8046425,26.5877741 10.3944021,26.3932369 10.1690295,26.0356365 C9.94365684,25.6780361 9.94365684,25.2216418 10.1690295,24.8640414 C10.3944021,24.506441 10.8046425,24.3119038 11.2221445,24.3646511 L22.3099462,24.3646511 C22.9101548,24.3646511 23.3967201,24.8543199 23.3967201,25.4583569 C23.3967201,26.0623939 22.9101548,26.5520627 22.3099462,26.5520627 L11.2221445,26.5350268 Z M11.2221445,16.1874116 C10.6219358,16.1874116 10.1353706,15.6977428 10.1353706,15.0937058 C10.1353706,14.4896688 10.6219358,14 11.2221445,14 L27.4729684,14 C28.073177,14 28.5597422,14.4896688 28.5597422,15.0937058 C28.5597422,15.6977428 28.073177,16.1874116 27.4729684,16.1874116 L11.2221445,16.1874116 Z" id="形状" fill="#333333" fill-rule="nonzero"></path>
            </g>
        </g>
    </g>
</svg>