<?xml version="1.0" encoding="UTF-8"?>
<svg width="40px" height="40px" viewBox="0 0 40 40" version="1.1" xmlns="http://www.w3.org/2000/svg" xmlns:xlink="http://www.w3.org/1999/xlink">
    <title>资产负债表</title>
    <g id="页面-1" stroke="none" stroke-width="1" fill="none" fill-rule="evenodd">
        <g id="主页" transform="translate(-30.000000, -1166.000000)">
            <g id="分组-13备份" transform="translate(30.000000, 1166.000000)">
                <rect id="矩形" fill="#D8D8D8" opacity="0" x="0" y="0" width="40" height="40"></rect>
                <path d="M19.0044336,19.5778392 C28.390773,19.5778392 35.9999645,15.6454358 35.9999645,10.788884 C35.9999645,5.93236791 28.3908441,2 19.0044336,2 C9.61802301,2 2.00893823,5.93240345 2.00893823,10.7889196 C2.00893823,15.6454713 9.61802301,19.5778392 19.0044336,19.5778392 L19.0044336,19.5778392 Z M19.0043625,4.23678647 C27.1779773,4.23678647 33.8039968,7.17040865 33.8039968,10.788884 C33.8039968,14.4075016 27.1779418,17.3410527 19.0043625,17.3410527 C10.8308187,17.3410527 4.20472809,14.4075016 4.20472809,10.788884 C4.20472809,7.17044423 10.8308187,4.23678647 19.0043625,4.23678647 L19.0043625,4.23678647 Z M35.9944176,18.7192215 L35.8858282,17.6222333 C35.8249911,17.007533 35.2773858,16.5585615 34.6627211,16.6193986 C34.0480564,16.6802713 33.5990493,17.2278409 33.6599576,17.8425768 L33.6931673,18.1785143 L33.6828204,18.1785143 C33.6886161,18.198497 33.6937717,18.218622 33.6990697,18.2385336 L33.7685115,18.9396006 C33.7746983,19.00218 33.786183,19.0628749 33.8019701,19.1217208 C33.6796558,22.6935461 27.1014598,25.5724824 19.0042913,25.5724824 C10.8835134,25.5724824 4.2905614,22.6767279 4.20565256,19.09036 C4.21731507,19.0414343 4.22616865,18.9911574 4.23128878,18.9396006 L4.33984269,17.8425412 C4.40075095,17.2279121 3.95177936,16.6802358 3.33711466,16.619363 C2.72244995,16.5585615 2.17484474,17.0074975 2.11397207,17.6221978 L2.00541815,18.719186 C1.99681349,18.8058016 1.99869798,18.8909949 2.00936492,18.9737348 C2.0092227,18.989273 2.00883156,19.0048467 2.00883156,19.0203849 C2.00883156,23.876901 9.61788079,27.8092334 19.0043625,27.8092334 C28.3906308,27.8092334 35.999889,23.876901 35.999889,19.0203849 C35.999889,18.9782149 35.99904,18.9362583 35.9979733,18.8942661 C36.0013512,18.8368424 36.00032,18.7783875 35.9944176,18.7192215 L35.9944176,18.7192215 Z M35.9944176,26.9474867 L35.9928532,26.9318063 C35.9854219,26.7900782 35.9722304,26.6490257 35.9519988,26.5090043 L35.9510388,26.5090043 L35.8858638,25.8503207 C35.8250266,25.2357271 35.2774214,24.7866844 34.6627567,24.8475927 C34.048092,24.9084298 33.5990849,25.4559284 33.6599931,26.0706642 L33.7686181,27.1677591 C33.7743783,27.2267828 33.7848674,27.2842777 33.7993034,27.3399947 C33.5999382,30.8816681 27.0523919,33.7257946 19.004398,33.7257946 C10.9324391,33.7257946 4.37006569,30.8646721 4.20810595,27.3083494 C4.2185951,27.2625171 4.22663089,27.2157248 4.23135987,27.1677947 L4.33991379,26.0706997 C4.40078646,25.456035 3.95185046,24.9084298 3.33718575,24.8476282 C2.72252105,24.78672 2.17491583,25.2356916 2.1140787,25.8503563 L2.00548925,26.9475223 C1.99695571,27.0334267 1.99876907,27.1180867 2.00925822,27.2002932 C2.03699227,32.0445068 9.63512566,35.9626166 19.0044691,35.9626166 C28.3908085,35.9626166 36,32.0302132 36,27.173697 C36,27.1509764 35.9990755,27.1283625 35.9987911,27.1057841 C36.0009245,27.0535161 36,27.0007503 35.9944176,26.9474867 L35.9944176,26.9474867 Z" id="形状" fill="#333333" fill-rule="nonzero"></path>
            </g>
        </g>
    </g>
</svg>