<?xml version="1.0" encoding="UTF-8"?>
<svg width="180px" height="180px" viewBox="0 0 180 180" version="1.1" xmlns="http://www.w3.org/2000/svg" xmlns:xlink="http://www.w3.org/1999/xlink">
    <title>支付成功</title>
    <g id="页面-1" stroke="none" stroke-width="1" fill="none" fill-rule="evenodd">
        <g id="支付成功" transform="translate(-285.000000, -208.000000)" fill="#5EE86B">
            <g id="编组-2" transform="translate(285.000000, 208.000000)">
                <path d="M91,0 C41.2944624,0 1,40.2944621 1,90 C1,139.705538 41.2944621,180 91,180 C140.705538,180 181,139.705538 181,90 C181,40.2944621 140.705744,0 91,0 L91,0 Z M140.078743,65.2619896 L84.1030257,134.386539 L36.1953157,95.5914017 C32.8134371,92.8525715 32.2919201,87.8906684 35.0304617,84.5085561 C37.7692645,81.1264163 42.7311675,80.6048993 46.1133073,83.3437021 L81.7733175,112.220848 L127.831304,55.3439709 C130.569846,51.9618585 135.53201,51.4403141 138.913889,54.1791443 C142.296029,56.917947 142.817546,61.8798498 140.078743,65.2619896 L140.078743,65.2619896 Z" id="Shape"></path>
            </g>
        </g>
    </g>
</svg>