<?xml version="1.0" encoding="UTF-8"?>
<svg width="40px" height="40px" viewBox="0 0 40 40" version="1.1" xmlns="http://www.w3.org/2000/svg" xmlns:xlink="http://www.w3.org/1999/xlink">
    <title>利润表</title>
    <g id="页面-1" stroke="none" stroke-width="1" fill="none" fill-rule="evenodd">
        <g id="主页" transform="translate(-30.000000, -1006.000000)">
            <g id="分组-13备份-2" transform="translate(30.000000, 1006.000000)">
                <rect id="矩形" fill="#D8D8D8" opacity="0" x="0" y="0" width="40" height="40"></rect>
                <g id="编组-2" transform="translate(4.000000, 3.000000)" fill="#333333" fill-rule="nonzero">
                    <polygon id="路径" points="27.4929231 24.5715385 29.7081538 24.5715385 29.7081538 25.8896923 26.8704615 25.8896923 26.8704615 27.2078462 29.7081538 27.2078462 29.7081538 28.5076923 26.8704615 28.5076923 26.8704615 31.7115385 24.6918462 31.7115385 24.6918462 28.5076923 21.8907692 28.5076923 21.8907692 27.2078462 24.6918462 27.2078462 24.6918462 25.8896923 21.8907692 25.8896923 21.8907692 24.5715385 24.0693846 24.5715385 20.7373846 19.006 23.2455385 19.006 25.7903077 23.766 25.9001538 23.766 28.4815385 19.006 30.9164615 19.006"></polygon>
                    <path d="M12.0961538,14.1361538 L15.3261538,17.3661538 C15.7090691,17.7485929 16.3293924,17.7485929 16.7123077,17.3661538 L25.8661538,8.21230769 C26.2262385,7.82587186 26.2156135,7.22367959 25.8421208,6.85018688 C25.4686281,6.47669416 24.8664358,6.46606918 24.48,6.82615385 L16.0192308,15.2869231 L12.7892308,12.0569231 C12.4063155,11.674484 11.7859922,11.674484 11.4030769,12.0569231 L4.86461538,18.5953846 C4.50453072,18.9818204 4.5151557,19.5840127 4.88864842,19.9575054 C5.26214113,20.3309981 5.8643334,20.3416231 6.25076923,19.9815385 L12.0961538,14.1361538 L12.0961538,14.1361538 Z" id="路径"></path>
                    <path d="M16.6730769,28.7692308 L3.59615385,28.7692308 C2.69384615,28.7692308 1.96153846,28.0369231 1.96153846,27.1346154 L1.96153846,3.59615385 C1.96153846,2.69384615 2.69384615,1.96153846 3.59615385,1.96153846 L27.1346154,1.96153846 C28.0369231,1.96153846 28.7692308,2.69384615 28.7692308,3.59615385 L28.7692308,15.3653846 C28.7692308,15.9070485 29.2083361,16.3461538 29.75,16.3461538 C30.2916639,16.3461538 30.7307692,15.9070485 30.7307692,15.3653846 L30.7307692,3.59615385 C30.7307692,1.61005292 29.1207163,0 27.1346154,0 L3.59615385,0 C1.61005292,0 0,1.61005292 0,3.59615385 L0,27.1346154 C0,29.1207163 1.61005292,30.7307692 3.59615385,30.7307692 L16.6730769,30.7307692 C17.2147408,30.7307692 17.6538462,30.2916639 17.6538462,29.75 C17.6538462,29.2083361 17.2147408,28.7692308 16.6730769,28.7692308 Z" id="路径"></path>
                    <path d="M24.1923077,8.5 L24.1923077,11.4423077 C24.1923077,11.9839716 24.631413,12.4230769 25.1730769,12.4230769 C25.7147408,12.4230769 26.1538462,11.9839716 26.1538462,11.4423077 L26.1538462,7.51923077 C26.1538462,6.97756688 25.7147408,6.53846154 25.1730769,6.53846154 L21.25,6.53846154 C20.7083361,6.53846154 20.2692308,6.97756688 20.2692308,7.51923077 C20.2692308,8.06089466 20.7083361,8.5 21.25,8.5 L24.1923077,8.5 Z" id="路径"></path>
                </g>
            </g>
        </g>
    </g>
</svg>